<svg width="1920" height="1080" xmlns="http://www.w3.org/2000/svg">
  <defs>
    <linearGradient id="hero1-sky" x1="0%" y1="0%" x2="0%" y2="100%">
      <stop offset="0%" style="stop-color:#87CEEB;stop-opacity:1" />
      <stop offset="100%" style="stop-color:#E0F6FF;stop-opacity:1" />
    </linearGradient>
  </defs>

  <!-- Sky -->
  <rect width="1920" height="720" fill="url(#hero1-sky)"/>

  <!-- Sun -->
  <circle cx="1600" cy="200" r="80" fill="#FFD700" opacity="0.8"/>

  <!-- Mountains in background -->
  <path d="M 0 500 L 400 300 L 800 500 L 1200 350 L 1600 500 L 1920 400 L 1920 720 L 0 720 Z" fill="#8FBC8F" opacity="0.6"/>

  <!-- Mountains in foreground -->
  <path d="M 0 600 L 500 400 L 1000 600 L 1500 450 L 1920 600 L 1920 720 L 0 720 Z" fill="#556B2F"/>

  <!-- Rice paddies -->
  <rect y="720" width="1920" height="360" fill="#F4E4C1"/>

  <!-- Paddy lines -->
  <rect y="740" width="1920" height="20" fill="#E8D4A8" opacity="0.7"/>
  <rect y="780" width="1920" height="20" fill="#E8D4A8" opacity="0.7"/>
  <rect y="820" width="1920" height="20" fill="#E8D4A8" opacity="0.7"/>
  <rect y="860" width="1920" height="20" fill="#E8D4A8" opacity="0.7"/>
  <rect y="900" width="1920" height="20" fill="#E8D4A8" opacity="0.7"/>
  <rect y="940" width="1920" height="20" fill="#E8D4A8" opacity="0.7"/>
  <rect y="980" width="1920" height="20" fill="#E8D4A8" opacity="0.7"/>
  <rect y="1020" width="1920" height="20" fill="#E8D4A8" opacity="0.7"/>

  <!-- Traditional house -->
  <rect x="800" y="650" width="250" height="150" fill="#8B7355"/>
  <path d="M 750 650 L 925 580 L 1100 650 Z" fill="#A0522D"/>
  <rect x="900" y="720" width="60" height="80" fill="#654321"/>

  <!-- Trees -->
  <circle cx="1300" cy="720" r="60" fill="#228B22"/>
  <rect x="1285" y="740" width="30" height="80" fill="#8B4513"/>

  <circle cx="1450" cy="700" r="70" fill="#228B22"/>
  <rect x="1433" y="720" width="34" height="100" fill="#8B4513"/>
</svg>
